<svg xmlns="http://www.w3.org/2000/svg" class="px-logo" viewBox="0 0 184 24" width="184" height="24" aria-hidden="true" focusable="false"><g fill="#0a2e23"><rect x="4" y="4" width="4" height="4"/><rect x="8" y="4" width="4" height="4"/><rect x="0" y="8" width="4" height="4"/><rect x="0" y="12" width="4" height="4"/><rect x="0" y="16" width="4" height="4"/><rect x="4" y="20" width="4" height="4"/><rect x="8" y="20" width="4" height="4"/><rect x="16" y="4" width="4" height="4"/><rect x="20" y="4" width="4" height="4"/><rect x="24" y="4" width="4" height="4"/><rect x="20" y="8" width="4" height="4"/><rect x="20" y="12" width="4" height="4"/><rect x="20" y="16" width="4" height="4"/><rect x="16" y="20" width="4" height="4"/><rect x="20" y="20" width="4" height="4"/><rect x="24" y="20" width="4" height="4"/><rect x="32" y="4" width="4" height="4"/><rect x="36" y="4" width="4" height="4"/><rect x="32" y="8" width="4" height="4"/><rect x="40" y="8" width="4" height="4"/><rect x="32" y="12" width="4" height="4"/><rect x="36" y="12" width="4" height="4"/><rect x="32" y="16" width="4" height="4"/><rect x="32" y="20" width="4" height="4"/><rect x="48" y="4" width="4" height="4"/><rect x="56" y="4" width="4" height="4"/><rect x="48" y="8" width="4" height="4"/><rect x="56" y="8" width="4" height="4"/><rect x="48" y="12" width="4" height="4"/><rect x="52" y="12" width="4" height="4"/><rect x="56" y="12" width="4" height="4"/><rect x="48" y="16" width="4" height="4"/><rect x="56" y="16" width="4" height="4"/><rect x="48" y="20" width="4" height="4"/><rect x="56" y="20" width="4" height="4"/><rect x="64" y="4" width="4" height="4"/><rect x="68" y="4" width="4" height="4"/><rect x="72" y="4" width="4" height="4"/><rect x="64" y="8" width="4" height="4"/><rect x="64" y="12" width="4" height="4"/><rect x="68" y="12" width="4" height="4"/><rect x="64" y="16" width="4" height="4"/><rect x="64" y="20" width="4" height="4"/><rect x="68" y="20" width="4" height="4"/><rect x="72" y="20" width="4" height="4"/><rect x="80" y="4" width="4" height="4"/><rect x="84" y="4" width="4" height="4"/><rect x="80" y="8" width="4" height="4"/><rect x="88" y="8" width="4" height="4"/><rect x="80" y="12" width="4" height="4"/><rect x="84" y="12" width="4" height="4"/><rect x="80" y="16" width="4" height="4"/><rect x="88" y="16" width="4" height="4"/><rect x="80" y="20" width="4" height="4"/><rect x="88" y="20" width="4" height="4"/></g><g fill="#0a3038"><rect x="100" y="4" width="4" height="4"/><rect x="108" y="4" width="4" height="4"/><rect x="100" y="8" width="4" height="4"/><rect x="108" y="8" width="4" height="4"/><rect x="100" y="12" width="4" height="4"/><rect x="104" y="12" width="4" height="4"/><rect x="108" y="12" width="4" height="4"/><rect x="100" y="16" width="4" height="4"/><rect x="108" y="16" width="4" height="4"/><rect x="100" y="20" width="4" height="4"/><rect x="108" y="20" width="4" height="4"/><rect x="120" y="4" width="4" height="4"/><rect x="116" y="8" width="4" height="4"/><rect x="124" y="8" width="4" height="4"/><rect x="116" y="12" width="4" height="4"/><rect x="120" y="12" width="4" height="4"/><rect x="124" y="12" width="4" height="4"/><rect x="116" y="16" width="4" height="4"/><rect x="124" y="16" width="4" height="4"/><rect x="116" y="20" width="4" height="4"/><rect x="124" y="20" width="4" height="4"/><rect x="136" y="4" width="4" height="4"/><rect x="140" y="4" width="4" height="4"/><rect x="132" y="8" width="4" height="4"/><rect x="132" y="12" width="4" height="4"/><rect x="132" y="16" width="4" height="4"/><rect x="136" y="20" width="4" height="4"/><rect x="140" y="20" width="4" height="4"/><rect x="148" y="4" width="4" height="4"/><rect x="156" y="4" width="4" height="4"/><rect x="148" y="8" width="4" height="4"/><rect x="156" y="8" width="4" height="4"/><rect x="148" y="12" width="4" height="4"/><rect x="152" y="12" width="4" height="4"/><rect x="148" y="16" width="4" height="4"/><rect x="156" y="16" width="4" height="4"/><rect x="148" y="20" width="4" height="4"/><rect x="156" y="20" width="4" height="4"/><rect x="168" y="4" width="4" height="4"/><rect x="172" y="4" width="4" height="4"/><rect x="164" y="8" width="4" height="4"/><rect x="168" y="12" width="4" height="4"/><rect x="172" y="16" width="4" height="4"/><rect x="164" y="20" width="4" height="4"/><rect x="168" y="20" width="4" height="4"/></g><g fill="#3cf5a5"><rect x="4" y="0" width="4" height="4"/><rect x="8" y="0" width="4" height="4"/><rect x="0" y="4" width="4" height="4"/><rect x="0" y="8" width="4" height="4"/><rect x="0" y="12" width="4" height="4"/><rect x="4" y="16" width="4" height="4"/><rect x="8" y="16" width="4" height="4"/><rect x="16" y="0" width="4" height="4"/><rect x="20" y="0" width="4" height="4"/><rect x="24" y="0" width="4" height="4"/><rect x="20" y="4" width="4" height="4"/><rect x="20" y="8" width="4" height="4"/><rect x="20" y="12" width="4" height="4"/><rect x="16" y="16" width="4" height="4"/><rect x="20" y="16" width="4" height="4"/><rect x="24" y="16" width="4" height="4"/><rect x="32" y="0" width="4" height="4"/><rect x="36" y="0" width="4" height="4"/><rect x="32" y="4" width="4" height="4"/><rect x="40" y="4" width="4" height="4"/><rect x="32" y="8" width="4" height="4"/><rect x="36" y="8" width="4" height="4"/><rect x="32" y="12" width="4" height="4"/><rect x="32" y="16" width="4" height="4"/><rect x="48" y="0" width="4" height="4"/><rect x="56" y="0" width="4" height="4"/><rect x="48" y="4" width="4" height="4"/><rect x="56" y="4" width="4" height="4"/><rect x="48" y="8" width="4" height="4"/><rect x="52" y="8" width="4" height="4"/><rect x="56" y="8" width="4" height="4"/><rect x="48" y="12" width="4" height="4"/><rect x="56" y="12" width="4" height="4"/><rect x="48" y="16" width="4" height="4"/><rect x="56" y="16" width="4" height="4"/><rect x="64" y="0" width="4" height="4"/><rect x="68" y="0" width="4" height="4"/><rect x="72" y="0" width="4" height="4"/><rect x="64" y="4" width="4" height="4"/><rect x="64" y="8" width="4" height="4"/><rect x="68" y="8" width="4" height="4"/><rect x="64" y="12" width="4" height="4"/><rect x="64" y="16" width="4" height="4"/><rect x="68" y="16" width="4" height="4"/><rect x="72" y="16" width="4" height="4"/><rect x="80" y="0" width="4" height="4"/><rect x="84" y="0" width="4" height="4"/><rect x="80" y="4" width="4" height="4"/><rect x="88" y="4" width="4" height="4"/><rect x="80" y="8" width="4" height="4"/><rect x="84" y="8" width="4" height="4"/><rect x="80" y="12" width="4" height="4"/><rect x="88" y="12" width="4" height="4"/><rect x="80" y="16" width="4" height="4"/><rect x="88" y="16" width="4" height="4"/></g><g fill="#3fe0ff"><rect x="100" y="0" width="4" height="4"/><rect x="108" y="0" width="4" height="4"/><rect x="100" y="4" width="4" height="4"/><rect x="108" y="4" width="4" height="4"/><rect x="100" y="8" width="4" height="4"/><rect x="104" y="8" width="4" height="4"/><rect x="108" y="8" width="4" height="4"/><rect x="100" y="12" width="4" height="4"/><rect x="108" y="12" width="4" height="4"/><rect x="100" y="16" width="4" height="4"/><rect x="108" y="16" width="4" height="4"/><rect x="120" y="0" width="4" height="4"/><rect x="116" y="4" width="4" height="4"/><rect x="124" y="4" width="4" height="4"/><rect x="116" y="8" width="4" height="4"/><rect x="120" y="8" width="4" height="4"/><rect x="124" y="8" width="4" height="4"/><rect x="116" y="12" width="4" height="4"/><rect x="124" y="12" width="4" height="4"/><rect x="116" y="16" width="4" height="4"/><rect x="124" y="16" width="4" height="4"/><rect x="136" y="0" width="4" height="4"/><rect x="140" y="0" width="4" height="4"/><rect x="132" y="4" width="4" height="4"/><rect x="132" y="8" width="4" height="4"/><rect x="132" y="12" width="4" height="4"/><rect x="136" y="16" width="4" height="4"/><rect x="140" y="16" width="4" height="4"/><rect x="148" y="0" width="4" height="4"/><rect x="156" y="0" width="4" height="4"/><rect x="148" y="4" width="4" height="4"/><rect x="156" y="4" width="4" height="4"/><rect x="148" y="8" width="4" height="4"/><rect x="152" y="8" width="4" height="4"/><rect x="148" y="12" width="4" height="4"/><rect x="156" y="12" width="4" height="4"/><rect x="148" y="16" width="4" height="4"/><rect x="156" y="16" width="4" height="4"/><rect x="168" y="0" width="4" height="4"/><rect x="172" y="0" width="4" height="4"/><rect x="164" y="4" width="4" height="4"/><rect x="168" y="8" width="4" height="4"/><rect x="172" y="12" width="4" height="4"/><rect x="164" y="16" width="4" height="4"/><rect x="168" y="16" width="4" height="4"/></g><rect class="px-cursor" x="176" y="0" width="4" height="20" fill="#ffd166"/></svg>
